<?xml version="1.0" encoding="UTF-8" standalone="no"?>
<svg
   viewBox="0 0 880.01 268.74"
   version="1.1"
   id="svg64"
   xmlns="http://www.w3.org/2000/svg"
   xmlns:svg="http://www.w3.org/2000/svg">
  <defs
     id="defs4">
    <style
       id="style2">.cls-1{fill:#0375e5;}.cls-2{fill:#022567;}</style>
  </defs>
  <g
     id="Layer_2"
     data-name="Layer 2">
    <g
       id="Layer_1-2"
       data-name="Layer 1">
      <rect
         class="cls-1"
         y="82.57"
         width="74.89"
         height="186.17"
         id="rect6" />
      <path
         class="cls-1"
         d="M157.47,82.56v76.29H81.19a76.29,76.29,0,0,1,76.28-76.29Z"
         id="path8" />
      <rect
         class="cls-1"
         x="187.32"
         y="82.57"
         width="74.89"
         height="186.17"
         id="rect10" />
      <path
         class="cls-1"
         d="M449,82.57h0a74.88,74.88,0,0,0-74.89,74.88V268.74H449Z"
         id="path12" />
      <rect
         class="cls-1"
         x="374.14"
         width="74.89"
         height="74.89"
         id="rect14" />
      <path
         class="cls-1"
         d="M354,120.71a42,42,0,1,1-42-41.95A41.8,41.8,0,0,1,354,120.71Z"
         id="path16" />
      <g
         aria-label="RADIO REPUBLIK INDONESIA "
         transform="matrix(0.96168691,0,0,1.0398395,-378.79935,-0.33667743)"
         id="text2315"
         style="font-weight:900;font-size:62.945px;line-height:1.25;font-family:Nexa;-inkscape-font-specification:'Nexa Heavy';word-spacing:0px;fill:#022567;fill-opacity:1;stroke-width:1.57362">
        <g
           id="g3243"
           transform="matrix(1.0766053,0,0,1.0627048,-75.568592,17.054398)"
           style="fill:#022567;fill-opacity:1">
          <g
             id="g3216"
             style="fill:#022567;fill-opacity:1">
            <path
               d="M 958.5306,102.36359 946.44516,87.760347 c 8.43463,-3.02136 10.13414,-8.119905 10.19709,-13.8479 0,-7.742235 -5.66505,-14.85502 -16.30276,-14.85502 -7.11278,0 -13.72201,0 -20.89774,0 v 44.061503 h 9.81942 V 88.641577 h 7.11279 l 11.26715,14.477353 H 958.5306 Z M 940.33949,67.492057 c 4.59499,0 6.54628,3.65081 6.60923,6.67217 0,2.76958 -1.9513,6.16861 -6.48334,6.16861 h -11.20421 v -12.84078 z"
               id="path3127"
               style="fill:#022567;fill-opacity:1" />
            <path
               d="m 999.5077,103.11893 h 10.6377 L 990.38067,59.057427 h -10.70065 l -19.76473,44.061503 h 10.57476 l 3.2102,-7.553403 H 996.2975 Z M 992.58375,86.879117 H 977.414 l 7.61635,-17.87638 z"
               id="path3129"
               style="fill:#022567;fill-opacity:1" />
            <path
               d="m 1014.8033,59.057427 v 44.061503 c 5.5391,0 12.526,0 18.0652,0 15.4215,0 21.9048,-10.826543 21.9048,-22.345478 0,-11.518935 -6.7351,-21.716025 -21.9048,-21.716025 z m 9.6935,8.875245 h 8.3717 c 9.1899,0 12.2113,6.357445 12.2113,12.71489 0,6.357445 -2.6437,13.407285 -12.2113,13.407285 h -8.3717 z"
               id="path3131"
               style="fill:#022567;fill-opacity:1" />
            <path
               d="M 1071.9572,103.11893 V 59.057427 h -9.7564 v 44.061503 z"
               id="path3133"
               style="fill:#022567;fill-opacity:1" />
            <path
               d="m 1126.8452,81.088177 c 0,-14.35146 -9.6935,-23.100815 -23.7932,-23.100815 -14.0997,0 -23.7932,8.749355 -23.7932,23.100815 0,14.35146 9.6935,23.100813 23.7932,23.100813 14.0997,0 23.7932,-8.749353 23.7932,-23.100813 z m -9.6306,0 c 0,8.18285 -5.6021,14.22557 -14.1626,14.22557 -8.3717,0 -14.1626,-5.979775 -14.1626,-14.22557 0,-7.994015 5.7909,-14.288515 14.1626,-14.288515 8.5605,0 14.1626,6.231555 14.1626,14.288515 z"
               id="path3135"
               style="fill:#022567;fill-opacity:1" />
          </g>
          <g
             id="g3198"
             transform="translate(0,-18.084454)"
             style="fill:#022567;fill-opacity:1">
            <path
               d="M 958.5306,181.04484 946.44516,166.4416 c 8.43463,-3.02136 10.13414,-8.11991 10.19709,-13.8479 0,-7.74224 -5.66505,-14.85502 -16.30276,-14.85502 -7.11278,0 -13.72201,0 -20.89774,0 v 44.0615 h 9.81942 v -14.47735 h 7.11279 l 11.26715,14.47735 h 10.88949 z m -18.19111,-34.87153 c 4.59499,0 6.54628,3.65081 6.60923,6.67217 0,2.76958 -1.9513,6.16861 -6.48334,6.16861 h -11.20421 v -12.84078 z"
               id="path3137"
               style="fill:#022567;fill-opacity:1" />
            <path
               d="m 998.62647,172.7361 h -23.9191 v -8.87525 h 21.71602 v -8.62346 h -21.71602 v -8.49758 h 23.03787 v -9.00113 h -32.66846 c 0,14.66618 0,29.39531 0,44.0615 h 33.54969 z"
               id="path3139"
               style="fill:#022567;fill-opacity:1" />
            <path
               d="m 1016.188,147.05454 h 10.9524 c 4.658,0 7.0499,3.14725 7.0499,6.67217 0,3.52492 -2.329,6.60922 -7.0499,6.60922 h -10.9524 z m 10.9524,22.28253 c 11.2042,-0.12589 16.8693,-6.9869 16.8693,-15.7992 0,-8.49757 -5.6021,-15.79919 -16.8693,-15.79919 -6.9869,0 -13.722,0 -20.7718,0 v 44.0615 h 9.8194 v -12.46311 z"
               id="path3141"
               style="fill:#022567;fill-opacity:1" />
            <path
               d="m 1080.1401,137.80162 v 24.6115 c 0,6.60922 -2.3919,11.20421 -9.0641,11.64482 -7.1757,0.31473 -11.5819,-3.7767 -11.5819,-11.64482 v -24.6115 h -9.7564 v 24.6115 c 0,14.22557 9.7564,20.83479 21.2754,20.45712 11.5818,-0.37767 18.8835,-7.36456 18.8835,-20.45712 v -24.6115 z"
               id="path3143"
               style="fill:#022567;fill-opacity:1" />
            <path
               d="m 1108.717,163.04257 c 3.9026,0 8.057,0 11.9596,0 4.3432,0 6.6092,2.07718 6.6092,5.16149 0,3.0843 -2.0772,5.0356 -6.4834,5.0356 h -12.0854 z m 0,-16.80632 h 12.0854 c 3.7138,0 5.6022,1.88835 5.6022,4.4691 0,2.58074 -1.8884,4.15437 -5.728,4.15437 h -11.9596 z m -9.6306,-8.49757 v 44.0615 c 7.1758,0 14.9809,0 22.0937,0 8.8123,0 14.7291,-3.2102 16.051,-10.32298 0.9442,-5.09855 -1.3848,-10.7636 -6.9869,-12.77784 4.2173,-1.95129 5.8539,-5.35032 5.8539,-9.00113 0,-8.18285 -6.924,-11.95955 -15.2957,-11.95955 z"
               id="path3145"
               style="fill:#022567;fill-opacity:1" />
            <path
               d="m 1144.8474,137.73868 v 44.0615 h 31.8502 v -9.00114 h -22.0308 v -35.06036 z"
               id="path3147"
               style="fill:#022567;fill-opacity:1" />
            <path
               d="m 1192.3708,181.80018 v -44.0615 h -9.7565 v 44.0615 z"
               id="path3149"
               style="fill:#022567;fill-opacity:1" />
            <path
               d="m 1238.5723,137.73868 h -11.8966 l -14.6661,18.1911 v -18.1911 h -9.8195 v 44.0615 h 9.8195 v -18.82056 l 16.3027,18.82056 h 11.8337 v -0.56651 l -19.45,-22.09369 17.8763,-21.14952 z"
               id="path3151"
               style="fill:#022567;fill-opacity:1" />
          </g>
          <g
             id="g3209"
             transform="translate(0.69798887,-34.213047)"
             style="fill:#022567;fill-opacity:1">
            <path
               d="m 929.19823,260.48143 v -44.0615 h -9.75648 v 44.0615 z"
               id="path3153"
               style="fill:#022567;fill-opacity:1" />
            <path
               d="m 947.45221,216.41993 h -8.43463 v 44.0615 h 9.94531 v -13.72201 l -0.37767,-14.47735 21.90486,28.19936 h 8.43463 v -44.0615 h -9.88237 V 231.212 l 0.62945,13.8479 z"
               id="path3155"
               style="fill:#022567;fill-opacity:1" />
            <path
               d="m 988.74407,216.41993 v 44.0615 c 5.53916,0 12.52603,0 18.06523,0 15.4215,0 21.9048,-10.82654 21.9048,-22.34548 0,-11.51893 -6.7351,-21.71602 -21.9048,-21.71602 z m 9.69353,8.87524 h 8.3717 c 9.19,0 12.2113,6.35745 12.2113,12.71489 0,6.35745 -2.6437,13.40729 -12.2113,13.40729 h -8.3717 z"
               id="path3157"
               style="fill:#022567;fill-opacity:1" />
            <path
               d="m 1081.2102,238.45068 c 0,-14.35146 -9.6936,-23.10082 -23.7932,-23.10082 -14.0997,0 -23.7933,8.74936 -23.7933,23.10082 0,14.35146 9.6936,23.10081 23.7933,23.10081 14.0996,0 23.7932,-8.74935 23.7932,-23.10081 z m -9.6306,0 c 0,8.18285 -5.6021,14.22557 -14.1626,14.22557 -8.3717,0 -14.1627,-5.97978 -14.1627,-14.22557 0,-7.99402 5.791,-14.28852 14.1627,-14.28852 8.5605,0 14.1626,6.23156 14.1626,14.28852 z"
               id="path3159"
               style="fill:#022567;fill-opacity:1" />
            <path
               d="m 1096.9463,216.41993 h -8.4346 v 44.0615 h 9.9453 v -13.72201 l -0.3776,-14.47735 21.9048,28.19936 h 8.4346 v -44.0615 h -9.8823 V 231.212 l 0.6294,13.8479 z"
               id="path3161"
               style="fill:#022567;fill-opacity:1" />
            <path
               d="m 1171.7879,251.41735 h -23.9191 v -8.87525 h 21.716 v -8.62346 h -21.716 v -8.49758 h 23.0379 v -9.00113 h -32.6685 c 0,14.66618 0,29.39531 0,44.0615 h 33.5497 z"
               id="path3163"
               style="fill:#022567;fill-opacity:1" />
            <path
               d="m 1211.7579,221.64436 c -4.5321,-5.28738 -9.6306,-6.79806 -16.4287,-6.79806 -9.0641,0 -17.3728,4.65793 -17.4358,13.40729 -0.1258,10.38592 8.1829,12.71489 17.4988,13.59612 5.9797,0.50356 8.9381,2.20307 8.8752,5.91683 0,3.14725 -3.5879,5.22443 -8.8123,5.22443 -4.4691,0 -10.0712,-1.88835 -13.4702,-6.23155 l -5.8539,6.10566 c 3.7137,6.16861 11.6448,9.12703 19.2612,9.06408 9.5046,-0.0629 18.5687,-4.3432 18.5687,-14.16262 0,-10.19709 -8.2458,-13.53318 -16.9322,-14.28852 -5.665,-0.50356 -9.5047,-1.2589 -9.5047,-5.28738 0,-3.02136 3.5249,-4.84676 7.8682,-4.84676 3.4619,0 7.7422,1.13301 10.197,3.71375 z"
               id="path3165"
               style="fill:#022567;fill-opacity:1" />
            <path
               d="m 1230.4525,260.48143 v -44.0615 h -9.7565 v 44.0615 z"
               id="path3167"
               style="fill:#022567;fill-opacity:1" />
            <path
               d="m 1274.7027,260.48143 h 10.6378 l -19.7648,-44.0615 h -10.7006 l -19.7648,44.0615 h 10.5748 l 3.2102,-7.5534 h 22.5973 z m -6.9239,-16.23981 h -15.1697 l 7.6163,-17.87638 z"
               id="path3169"
               style="fill:#022567;fill-opacity:1" />
          </g>
        </g>
      </g>
    </g>
  </g>
</svg>
